<?xml version="1.0" encoding="UTF-8" standalone="no"?>
<!-- Created with Inkscape (http://www.inkscape.org/) -->

<svg
   width="210mm"
   height="210mm"
   viewBox="0 0 210 210"
   version="1.1"
   id="svg1"
   xml:space="preserve"
   inkscape:version="1.4.4 (dcaf3e7d9e, 2026-05-05)"
   sodipodi:docname="drawing.svg"
   xmlns:inkscape="http://www.inkscape.org/namespaces/inkscape"
   xmlns:sodipodi="http://sodipodi.sourceforge.net/DTD/sodipodi-0.dtd"
   xmlns="http://www.w3.org/2000/svg"
   xmlns:svg="http://www.w3.org/2000/svg"><sodipodi:namedview
     id="namedview1"
     pagecolor="#ffffff"
     bordercolor="#000000"
     borderopacity="0.25"
     inkscape:showpageshadow="2"
     inkscape:pageopacity="0.0"
     inkscape:pagecheckerboard="0"
     inkscape:deskcolor="#d1d1d1"
     inkscape:document-units="mm"
     inkscape:zoom="0.35355339"
     inkscape:cx="569.92806"
     inkscape:cy="1204.9099"
     inkscape:window-width="1366"
     inkscape:window-height="705"
     inkscape:window-x="0"
     inkscape:window-y="0"
     inkscape:window-maximized="1"
     inkscape:current-layer="layer1" /><defs
     id="defs1" /><g
     inkscape:label="Layer 1"
     inkscape:groupmode="layer"
     id="layer1"><g
       id="g6"
       inkscape:export-filename="logo.png"
       inkscape:export-xdpi="96"
       inkscape:export-ydpi="96"
       transform="translate(-0.01613445,-49.713797)"><rect
         style="opacity:1;fill:#000000;fill-opacity:1;stroke-width:1.75955"
         id="rect5"
         width="209.98151"
         height="209.9828"
         x="0.017548926"
         y="49.716133" /><path
         id="path1"
         style="opacity:1;fill:#ffffff;fill-opacity:1;stroke-width:0.264583"
         d="m 104.93881,93.723995 -52.292928,30.488065 -0.01292,59.90538 52.281048,30.92628 52.45313,-30.5418 0.11162,-60.91515 z m 0.0279,7.789705 46.29071,25.8501 0.0429,53.09444 -46.14499,27.32598 -46.392519,-26.92859 -0.0047,-52.93011 z" /><path
         style="opacity:1;fill:#ffffff;fill-opacity:1;stroke-width:0.264583"
         d="m 66.285435,174.92578 18.240234,10.41839 0.101283,-8.39272 -11.401298,-6.6732 0.228613,-29.78931 1.588624,-1.09381 9.388499,5.14349 0.234387,-7.38319 -11.456236,-6.65627 -7.197058,4.41658 z"
         id="path2" /><path
         id="path3"
         style="opacity:1;fill:#ffffff;fill-opacity:1;stroke-width:0.264583"
         d="m 105.07679,112.36937 -24.086901,13.70097 7.955586,4.12481 -0.257865,57.97114 15.72669,9.35499 15.91066,-9.42888 -0.11059,-29.42715 -10.93887,-6.33501 11.01225,-6.07663 -0.0367,-25.0083 z m -0.27957,8.88679 7.39593,4.27106 0.20826,16.77159 -11.25048,6.35465 -5.833751,0.10439 -0.130224,-21.66793 z m -9.480041,35.002 5.833751,0.10387 11.45873,6.6673 -0.20825,20.41735 -8.12509,4.79196 -8.854754,-5.10408 z" /><path
         style="opacity:1;fill:#ffffff;fill-opacity:1;stroke-width:0.264583"
         d="m 124.54185,185.73549 0.0737,-52.96205 8.71038,-4.75112 10.62556,6.00335 0.0368,11.25167 -6.00335,-0.1289 v -4.67746 l -4.56667,-2.89886 -0.61201,-0.013 -0.63805,0.44273 -0.20834,34.65021 6.08032,-3.67436 -0.0737,-10.6808 -2.57813,-0.14732 -0.0737,-6.92411 h 8.83929 l 0.22098,22.83482 z"
         id="path5" /></g></g></svg>
